<?xml version="1.0" encoding="UTF-8" standalone="no"?>
<!-- Created with Inkscape (http://www.inkscape.org/) -->

<svg
   xmlns:dc="http://purl.org/dc/elements/1.1/"
   xmlns:cc="http://creativecommons.org/ns#"
   xmlns:rdf="http://www.w3.org/1999/02/22-rdf-syntax-ns#"
   xmlns:svg="http://www.w3.org/2000/svg"
   xmlns="http://www.w3.org/2000/svg"
   xmlns:sodipodi="http://sodipodi.sourceforge.net/DTD/sodipodi-0.dtd"
   xmlns:inkscape="http://www.inkscape.org/namespaces/inkscape"
   width="1024"
   height="1024"
   id="svg2"
   version="1.1"
   inkscape:version="0.48.4 r9939"
   sodipodi:docname="logo.svg">
  <defs
     id="defs4" />
  <sodipodi:namedview
     id="base"
     pagecolor="#ffffff"
     bordercolor="#666666"
     borderopacity="1.0"
     inkscape:pageopacity="0.0"
     inkscape:pageshadow="2"
     inkscape:zoom="0.49497475"
     inkscape:cx="-71.832208"
     inkscape:cy="434.03995"
     inkscape:document-units="px"
     inkscape:current-layer="layer1"
     showgrid="true"
     inkscape:window-width="1366"
     inkscape:window-height="744"
     inkscape:window-x="0"
     inkscape:window-y="24"
     inkscape:window-maximized="1"
     inkscape:snap-grids="true">
    <inkscape:grid
       type="xygrid"
       id="grid2985"
       empspacing="5"
       visible="true"
       enabled="true"
       snapvisiblegridlinesonly="true" />
  </sodipodi:namedview>
  <metadata
     id="metadata7">
    <rdf:RDF>
      <cc:Work
         rdf:about="">
        <dc:format>image/svg+xml</dc:format>
        <dc:type
           rdf:resource="http://purl.org/dc/dcmitype/StillImage" />
        <dc:title></dc:title>
      </cc:Work>
    </rdf:RDF>
  </metadata>
  <g
     inkscape:groupmode="layer"
     id="layer2"
     inkscape:label="background"
     transform="translate(0,-28.36218)">
    <rect
       style="fill:#00ced1;fill-opacity:1;stroke:none"
       id="rect2999"
       width="1024"
       height="1024"
       x="0"
       y="28.362181"
       inkscape:export-filename="/home/alejandro/Projects/alericoveri.com.ve/img/htq2.png"
       inkscape:export-xdpi="45.000004"
       inkscape:export-ydpi="45.000004" />
  </g>
  <g
     inkscape:label="logo"
     inkscape:groupmode="layer"
     id="layer1"
     transform="translate(0,-28.36218)">
    <path
       style="fill:#ffffff"
       d="m 543.07558,253.52743 c 21.66444,127.8888 20.46022,119.22696 20.47272,147.2561 l 0.014,26.22278 15.28428,4.87046 c 54.38057,17.32852 103.0294,58.45484 129.28042,109.28988 8.06247,15.61296 16.57279,39.402 20.2865,56.70707 3.31416,15.44352 4.58493,52.64027 2.37058,69.39157 -7.87502,59.57383 -36.46798,112.45702 -77.46576,143.27433 -18.38984,13.82336 -40.53378,25.01452 -40.53378,20.48515 0,-0.62635 5.13602,-5.15916 11.41334,-10.07299 25.42896,-19.9054 54.06086,-56.2768 66.51037,-84.48885 3.22357,-7.30494 7.9218,-21.16209 10.44056,-30.79367 4.17498,-15.96496 4.5908,-19.68697 4.70763,-42.1347 0.1336,-25.72227 -0.82288,-32.74315 -7.51801,-55.16847 -12.63583,-42.32398 -45.88866,-80.1302 -89.88821,-102.19683 -14.0135,-7.02801 -39.79542,-17.23283 -43.5379,-17.23283 -0.79654,0 -1.3734,14.4168 -1.3734,34.32272 l 0,34.3227 5.79646,5.79644 c 3.18798,3.18802 8.22448,6.59775 11.19218,7.5772 2.96764,0.9794 5.39574,2.4002 5.39574,3.15728 0,0.82202 -29.75784,1.37657 -73.86846,1.37657 -44.1106,0 -73.8684,-0.55455 -73.8684,-1.37657 0,-0.75708 2.39088,-2.16558 5.31306,-3.13 2.9222,-0.96442 7.9587,-4.2702 11.19218,-7.34616 l 5.87912,-5.59262 0,-35.24967 0,-35.24963 -15.29598,5.31226 c -70.4086,24.45284 -117.63115,79.05332 -126.60196,146.38192 -4.09468,30.7319 4.56662,76.61526 20.42087,108.17961 13.24197,26.3637 36.81458,55.41036 61.78539,76.13348 4.51419,3.74628 7.66224,7.3701 6.99572,8.05288 -1.75892,1.80182 -19.13784,-7.63134 -33.0135,-17.9195 -29.44164,-21.82966 -55.79459,-57.63425 -68.54357,-93.12717 -5.19068,-14.45066 -10.76732,-36.95172 -12.98318,-52.38522 -2.51974,-17.55016 -0.95953,-56.76758 2.9156,-73.2838 15.13779,-64.51998 51.23446,-113.38044 107.59957,-145.6469 15.10754,-8.6484 36.07702,-17.32466 48.8865,-20.22714 l 7.83454,-1.77526 0,-25.20964 c 0,-23.7754 0.55478,-28.70631 9.75098,-86.66968 9.66898,-60.9434 11.44049,-69.70489 13.18064,-65.19077 0.4746,1.23112 5.24634,28.25835 10.60388,60.06045 9.53818,56.61842 9.74096,58.39197 9.74096,85.20242 0,24.6305 0.27396,27.62844 2.72898,29.85014 3.4393,3.11248 8.29994,3.16592 11.34118,0.1248 1.95518,-1.95514 2.34506,-6.73535 2.34506,-28.75141 0,-25.31166 0.4021,-28.90995 9.69986,-86.79463 5.33496,-33.21349 9.6999,-60.56722 9.6999,-60.78607 0,-0.21887 0.58368,-0.39789 1.29706,-0.39789 0.71334,0 1.66672,2.18251 2.11862,4.84994 z m -38.88382,264.74892 c -0.34674,31.31018 -0.0874,36.36735 1.97198,38.42649 2.7302,2.73027 7.05673,3.04923 11.20992,0.82653 2.7357,-1.46412 2.88648,-3.49504 2.88648,-38.87758 l 0,-37.33278 -7.83452,0.45106 -7.83454,0.45105 -0.39932,36.05523 z"
       id="path2996"
       inkscape:connector-curvature="0" />
  </g>
</svg>
