<?xml version="1.0" encoding="UTF-8" standalone="no"?>
<!-- Created with Inkscape (http://www.inkscape.org/) -->

<svg
   xmlns:dc="http://purl.org/dc/elements/1.1/"
   xmlns:cc="http://creativecommons.org/ns#"
   xmlns:rdf="http://www.w3.org/1999/02/22-rdf-syntax-ns#"
   xmlns:svg="http://www.w3.org/2000/svg"
   xmlns="http://www.w3.org/2000/svg"
   xmlns:sodipodi="http://sodipodi.sourceforge.net/DTD/sodipodi-0.dtd"
   xmlns:inkscape="http://www.inkscape.org/namespaces/inkscape"
   width="744.09448819"
   height="1052.3622047"
   id="svg2"
   version="1.1"
   inkscape:version="0.48.4 r9939"
   sodipodi:docname="New document 1">
  <defs
     id="defs4" />
  <sodipodi:namedview
     id="base"
     pagecolor="#ffffff"
     bordercolor="#666666"
     borderopacity="1.0"
     inkscape:pageopacity="0.0"
     inkscape:pageshadow="2"
     inkscape:zoom="0.98994949"
     inkscape:cx="522.71894"
     inkscape:cy="704.26611"
     inkscape:document-units="px"
     inkscape:current-layer="layer2"
     showgrid="false"
     inkscape:window-width="1366"
     inkscape:window-height="744"
     inkscape:window-x="0"
     inkscape:window-y="24"
     inkscape:window-maximized="1" />
  <metadata
     id="metadata7">
    <rdf:RDF>
      <cc:Work
         rdf:about="">
        <dc:format>image/svg+xml</dc:format>
        <dc:type
           rdf:resource="http://purl.org/dc/dcmitype/StillImage" />
        <dc:title></dc:title>
      </cc:Work>
    </rdf:RDF>
  </metadata>
  <g
     inkscape:groupmode="layer"
     id="layer2"
     inkscape:label="background">
    <rect
       style="fill:#008080;stroke:none"
       id="rect2999"
       width="512"
       height="512"
       x="98.994957"
       y="121.1489"
       inkscape:export-filename="/home/alejandro/Projects/alericoveri.com.ve/img/htq2.png"
       inkscape:export-xdpi="45.000004"
       inkscape:export-ydpi="45.000004" />
  </g>
  <g
     inkscape:label="logo"
     inkscape:groupmode="layer"
     id="layer1">
    <path
       style="fill:#ffffff"
       d="m 377.5281,169.16331 c 15.70903,92.73294 14.83583,86.45218 14.84489,106.77628 l 0.01,19.0143 11.08274,3.53158 c 39.43168,12.56503 74.70724,42.38597 93.74201,79.24675 5.84614,11.32105 12.01703,28.57063 14.70985,41.11865 2.40313,11.19819 3.32457,38.16976 1.71893,50.31624 -5.71023,43.19733 -26.44315,81.54326 -56.17088,103.88908 -13.33459,10.0234 -29.39129,18.13818 -29.39129,14.85389 0,-0.45416 3.72415,-3.74094 8.27589,-7.30398 18.43869,-14.43352 39.19984,-40.80663 48.22706,-61.26338 2.33743,-5.29685 5.74414,-15.34474 7.5705,-22.32866 3.02731,-11.57629 3.32883,-14.27515 3.41354,-30.55213 0.097,-18.65136 -0.59669,-23.74226 -5.45134,-40.00299 -9.16233,-30.68937 -33.27416,-58.10289 -65.1785,-74.10353 -10.16126,-5.09605 -28.8559,-12.49562 -31.56959,-12.49562 -0.57757,0 -0.99586,10.4537 -0.99586,24.8876 l 0,24.88759 4.20304,4.20304 c 2.31164,2.31164 5.96363,4.78408 8.11552,5.49426 2.15186,0.71018 3.91249,1.74042 3.91249,2.28938 0,0.59605 -21.5776,0.99816 -53.56246,0.99816 -31.98485,0 -53.56243,-0.40211 -53.56243,-0.99816 0,-0.54896 1.73365,-1.57029 3.85254,-2.26959 2.11891,-0.6993 5.7709,-3.09635 8.11552,-5.32674 l 4.26297,-4.05525 0,-25.55973 0,-25.55974 -11.0912,3.85198 c -51.05369,17.73089 -85.29506,57.32201 -91.79984,106.1424 -2.96908,22.28387 3.31129,55.55417 14.80729,78.44168 9.60185,19.11646 26.69447,40.17838 44.80097,55.20485 3.27326,2.71645 5.55594,5.34409 5.07264,5.83918 -1.27541,1.30651 -13.87697,-5.53353 -23.93828,-12.99354 -21.34832,-15.82881 -40.45701,-41.79094 -49.70136,-67.52707 -3.7638,-10.47826 -7.80746,-26.79392 -9.41418,-37.98484 -1.82709,-12.72573 -0.69575,-41.16252 2.1141,-53.13851 10.97651,-46.78383 37.15042,-82.21283 78.02112,-105.60945 10.95456,-6.271 26.15965,-12.56221 35.44788,-14.66682 l 5.68086,-1.28724 0,-18.27966 c 0,-17.23968 0.40228,-20.81513 7.07051,-62.84471 7.01104,-44.19043 8.29556,-50.54344 9.55735,-47.27022 0.34415,0.8927 3.80416,20.4903 7.68894,43.5502 6.9162,41.05435 7.06324,42.34035 7.06324,61.78077 0,17.85972 0.19865,20.03355 1.9788,21.64451 2.49386,2.25689 6.01832,2.29564 8.22355,0.0906 1.4177,-1.41768 1.70041,-4.88384 1.70041,-20.84782 0,-18.35363 0.29157,-20.96277 7.03344,-62.9353 3.8684,-24.08331 7.03345,-43.91766 7.03345,-44.07634 0,-0.15863 0.42322,-0.28851 0.9405,-0.28851 0.51726,0 1.20856,1.58254 1.53622,3.51672 z m -28.19488,191.97102 c -0.25142,22.7032 -0.0633,26.37019 1.42989,27.8633 1.97969,1.97971 5.11687,2.211 8.12837,0.5993 1.98369,-1.06164 2.09301,-2.53428 2.09301,-28.19036 l 0,-27.07022 -5.68086,0.32706 -5.68087,0.32707 -0.28954,26.14385 z"
       id="path2996"
       inkscape:connector-curvature="0" />
  </g>
</svg>
